<mxfile host="Electron" agent="Mozilla/5.0 (Windows NT 10.0; Win64; x64) AppleWebKit/537.36 (KHTML, like Gecko) draw.io/24.7.5 Chrome/126.0.6478.183 Electron/31.3.0 Safari/537.36" version="24.7.5">
  <diagram id="C5RBs43oDa-KdzZeNtuy" name="Page-1">
    <mxGraphModel dx="880" dy="532" grid="1" gridSize="10" guides="1" tooltips="1" connect="1" arrows="1" fold="1" page="1" pageScale="1" pageWidth="827" pageHeight="1169" math="0" shadow="0">
      <root>
        <mxCell id="WIyWlLk6GJQsqaUBKTNV-0" />
        <mxCell id="WIyWlLk6GJQsqaUBKTNV-1" parent="WIyWlLk6GJQsqaUBKTNV-0" />
        <mxCell id="1u4s5noSgd_4y4ufewdX-0" value="Usuario" style="swimlane;fontStyle=1;align=center;verticalAlign=top;childLayout=stackLayout;horizontal=1;startSize=26;horizontalStack=0;resizeParent=1;resizeParentMax=0;resizeLast=0;collapsible=1;marginBottom=0;whiteSpace=wrap;html=1;" parent="WIyWlLk6GJQsqaUBKTNV-1" vertex="1">
          <mxGeometry x="20" y="340" width="160" height="230" as="geometry" />
        </mxCell>
        <mxCell id="1u4s5noSgd_4y4ufewdX-1" value="nome: string&lt;div&gt;cpf: varchar(11)&lt;/div&gt;&lt;div&gt;user_id:int&lt;/div&gt;&lt;div&gt;email: string&lt;/div&gt;&lt;div&gt;senha: varchar(20)&lt;/div&gt;&lt;div&gt;celular:varchar(11)&lt;/div&gt;&lt;div&gt;is_admin:boolean&lt;/div&gt;" style="text;strokeColor=none;fillColor=none;align=left;verticalAlign=top;spacingLeft=4;spacingRight=4;overflow=hidden;rotatable=0;points=[[0,0.5],[1,0.5]];portConstraint=eastwest;whiteSpace=wrap;html=1;" parent="1u4s5noSgd_4y4ufewdX-0" vertex="1">
          <mxGeometry y="26" width="160" height="114" as="geometry" />
        </mxCell>
        <mxCell id="1u4s5noSgd_4y4ufewdX-2" value="" style="line;strokeWidth=1;fillColor=none;align=left;verticalAlign=middle;spacingTop=-1;spacingLeft=3;spacingRight=3;rotatable=0;labelPosition=right;points=[];portConstraint=eastwest;strokeColor=inherit;" parent="1u4s5noSgd_4y4ufewdX-0" vertex="1">
          <mxGeometry y="140" width="160" height="8" as="geometry" />
        </mxCell>
        <mxCell id="1u4s5noSgd_4y4ufewdX-3" value="criarUsuario()&lt;div&gt;consultarUsuario()&lt;/div&gt;&lt;div&gt;excluirUsuario()&lt;/div&gt;&lt;div&gt;editarUsuario()&lt;/div&gt;" style="text;strokeColor=none;fillColor=none;align=left;verticalAlign=top;spacingLeft=4;spacingRight=4;overflow=hidden;rotatable=0;points=[[0,0.5],[1,0.5]];portConstraint=eastwest;whiteSpace=wrap;html=1;" parent="1u4s5noSgd_4y4ufewdX-0" vertex="1">
          <mxGeometry y="148" width="160" height="82" as="geometry" />
        </mxCell>
        <mxCell id="ROxJ2L41lWqFTHPMJ1Fw-6" value="" style="endArrow=none;html=1;edgeStyle=orthogonalEdgeStyle;rounded=0;exitX=0.5;exitY=1;exitDx=0;exitDy=0;exitPerimeter=0;" edge="1" parent="WIyWlLk6GJQsqaUBKTNV-1" source="1u4s5noSgd_4y4ufewdX-3">
          <mxGeometry relative="1" as="geometry">
            <mxPoint x="330" y="570" as="sourcePoint" />
            <mxPoint x="100" y="710" as="targetPoint" />
          </mxGeometry>
        </mxCell>
        <mxCell id="ROxJ2L41lWqFTHPMJ1Fw-7" value="parent" style="edgeLabel;resizable=0;html=1;align=left;verticalAlign=bottom;" connectable="0" vertex="1" parent="ROxJ2L41lWqFTHPMJ1Fw-6">
          <mxGeometry x="-1" relative="1" as="geometry" />
        </mxCell>
        <mxCell id="ROxJ2L41lWqFTHPMJ1Fw-8" value="child" style="edgeLabel;resizable=0;html=1;align=right;verticalAlign=bottom;" connectable="0" vertex="1" parent="ROxJ2L41lWqFTHPMJ1Fw-6">
          <mxGeometry x="1" relative="1" as="geometry">
            <mxPoint y="10" as="offset" />
          </mxGeometry>
        </mxCell>
        <mxCell id="ROxJ2L41lWqFTHPMJ1Fw-9" value="Admin" style="swimlane;fontStyle=1;align=center;verticalAlign=top;childLayout=stackLayout;horizontal=1;startSize=26;horizontalStack=0;resizeParent=1;resizeParentMax=0;resizeLast=0;collapsible=1;marginBottom=0;whiteSpace=wrap;html=1;" vertex="1" parent="WIyWlLk6GJQsqaUBKTNV-1">
          <mxGeometry x="20" y="720" width="160" height="110" as="geometry" />
        </mxCell>
        <mxCell id="ROxJ2L41lWqFTHPMJ1Fw-10" value="is_admin:boolean=true&lt;div&gt;nome_admin:string&lt;/div&gt;&lt;div&gt;&lt;br&gt;&lt;/div&gt;" style="text;strokeColor=none;fillColor=none;align=left;verticalAlign=top;spacingLeft=4;spacingRight=4;overflow=hidden;rotatable=0;points=[[0,0.5],[1,0.5]];portConstraint=eastwest;whiteSpace=wrap;html=1;" vertex="1" parent="ROxJ2L41lWqFTHPMJ1Fw-9">
          <mxGeometry y="26" width="160" height="34" as="geometry" />
        </mxCell>
        <mxCell id="ROxJ2L41lWqFTHPMJ1Fw-11" value="" style="line;strokeWidth=1;fillColor=none;align=left;verticalAlign=middle;spacingTop=-1;spacingLeft=3;spacingRight=3;rotatable=0;labelPosition=right;points=[];portConstraint=eastwest;strokeColor=inherit;" vertex="1" parent="ROxJ2L41lWqFTHPMJ1Fw-9">
          <mxGeometry y="60" width="160" height="8" as="geometry" />
        </mxCell>
        <mxCell id="ROxJ2L41lWqFTHPMJ1Fw-12" value="&lt;div&gt;criaAdmin()&lt;/div&gt;&lt;div&gt;&lt;br&gt;&lt;/div&gt;" style="text;strokeColor=none;fillColor=none;align=left;verticalAlign=top;spacingLeft=4;spacingRight=4;overflow=hidden;rotatable=0;points=[[0,0.5],[1,0.5]];portConstraint=eastwest;whiteSpace=wrap;html=1;" vertex="1" parent="ROxJ2L41lWqFTHPMJ1Fw-9">
          <mxGeometry y="68" width="160" height="42" as="geometry" />
        </mxCell>
        <mxCell id="ROxJ2L41lWqFTHPMJ1Fw-13" value="" style="endArrow=open;html=1;endSize=12;startArrow=diamondThin;startSize=14;startFill=0;edgeStyle=orthogonalEdgeStyle;rounded=0;entryX=1;entryY=0.5;entryDx=0;entryDy=0;" edge="1" parent="WIyWlLk6GJQsqaUBKTNV-1" target="1u4s5noSgd_4y4ufewdX-1">
          <mxGeometry relative="1" as="geometry">
            <mxPoint x="310" y="423" as="sourcePoint" />
            <mxPoint x="490" y="620" as="targetPoint" />
          </mxGeometry>
        </mxCell>
        <mxCell id="ROxJ2L41lWqFTHPMJ1Fw-14" value="1..*" style="edgeLabel;resizable=0;html=1;align=left;verticalAlign=top;" connectable="0" vertex="1" parent="ROxJ2L41lWqFTHPMJ1Fw-13">
          <mxGeometry x="-1" relative="1" as="geometry">
            <mxPoint x="-30" y="-3" as="offset" />
          </mxGeometry>
        </mxCell>
        <mxCell id="ROxJ2L41lWqFTHPMJ1Fw-15" value="1" style="edgeLabel;resizable=0;html=1;align=right;verticalAlign=top;" connectable="0" vertex="1" parent="ROxJ2L41lWqFTHPMJ1Fw-13">
          <mxGeometry x="1" relative="1" as="geometry" />
        </mxCell>
        <mxCell id="ROxJ2L41lWqFTHPMJ1Fw-16" value="Compra" style="swimlane;fontStyle=1;align=center;verticalAlign=top;childLayout=stackLayout;horizontal=1;startSize=20;horizontalStack=0;resizeParent=1;resizeParentMax=0;resizeLast=0;collapsible=1;marginBottom=0;whiteSpace=wrap;html=1;" vertex="1" parent="WIyWlLk6GJQsqaUBKTNV-1">
          <mxGeometry x="310" y="350" width="160" height="170" as="geometry" />
        </mxCell>
        <mxCell id="ROxJ2L41lWqFTHPMJ1Fw-17" value="id_compra:int&lt;div&gt;user_id:int&lt;/div&gt;&lt;div&gt;id_bilhete:int&lt;/div&gt;&lt;div&gt;id_rifa:int&lt;/div&gt;" style="text;strokeColor=none;fillColor=none;align=left;verticalAlign=top;spacingLeft=4;spacingRight=4;overflow=hidden;rotatable=0;points=[[0,0.5],[1,0.5]];portConstraint=eastwest;whiteSpace=wrap;html=1;" vertex="1" parent="ROxJ2L41lWqFTHPMJ1Fw-16">
          <mxGeometry y="20" width="160" height="64" as="geometry" />
        </mxCell>
        <mxCell id="ROxJ2L41lWqFTHPMJ1Fw-18" value="" style="line;strokeWidth=1;fillColor=none;align=left;verticalAlign=middle;spacingTop=-1;spacingLeft=3;spacingRight=3;rotatable=0;labelPosition=right;points=[];portConstraint=eastwest;strokeColor=inherit;" vertex="1" parent="ROxJ2L41lWqFTHPMJ1Fw-16">
          <mxGeometry y="84" width="160" height="8" as="geometry" />
        </mxCell>
        <mxCell id="ROxJ2L41lWqFTHPMJ1Fw-19" value="&lt;div&gt;recusarCompra()&lt;/div&gt;&lt;div&gt;registrarCompra()&lt;/div&gt;&lt;div&gt;consultarCompra()&lt;/div&gt;&lt;div&gt;atualizarCompra()&lt;/div&gt;&lt;div&gt;excluirCompra()&lt;/div&gt;" style="text;strokeColor=none;fillColor=none;align=left;verticalAlign=top;spacingLeft=4;spacingRight=4;overflow=hidden;rotatable=0;points=[[0,0.5],[1,0.5]];portConstraint=eastwest;whiteSpace=wrap;html=1;" vertex="1" parent="ROxJ2L41lWqFTHPMJ1Fw-16">
          <mxGeometry y="92" width="160" height="78" as="geometry" />
        </mxCell>
        <mxCell id="ROxJ2L41lWqFTHPMJ1Fw-20" value="Rifa" style="swimlane;fontStyle=1;align=center;verticalAlign=top;childLayout=stackLayout;horizontal=1;startSize=26;horizontalStack=0;resizeParent=1;resizeParentMax=0;resizeLast=0;collapsible=1;marginBottom=0;whiteSpace=wrap;html=1;" vertex="1" parent="WIyWlLk6GJQsqaUBKTNV-1">
          <mxGeometry x="610" y="350" width="160" height="210" as="geometry" />
        </mxCell>
        <mxCell id="ROxJ2L41lWqFTHPMJ1Fw-21" value="id_rifa:int&lt;div&gt;nome_rifa:string&lt;/div&gt;&lt;div&gt;user_id:int&lt;/div&gt;&lt;div&gt;numero_bilhete:int&lt;/div&gt;" style="text;strokeColor=none;fillColor=none;align=left;verticalAlign=top;spacingLeft=4;spacingRight=4;overflow=hidden;rotatable=0;points=[[0,0.5],[1,0.5]];portConstraint=eastwest;whiteSpace=wrap;html=1;" vertex="1" parent="ROxJ2L41lWqFTHPMJ1Fw-20">
          <mxGeometry y="26" width="160" height="64" as="geometry" />
        </mxCell>
        <mxCell id="ROxJ2L41lWqFTHPMJ1Fw-22" value="" style="line;strokeWidth=1;fillColor=none;align=left;verticalAlign=middle;spacingTop=-1;spacingLeft=3;spacingRight=3;rotatable=0;labelPosition=right;points=[];portConstraint=eastwest;strokeColor=inherit;" vertex="1" parent="ROxJ2L41lWqFTHPMJ1Fw-20">
          <mxGeometry y="90" width="160" height="22" as="geometry" />
        </mxCell>
        <mxCell id="ROxJ2L41lWqFTHPMJ1Fw-23" value="&lt;div&gt;criarRifa()&lt;/div&gt;&lt;div&gt;gerenciamentoRifa()&lt;/div&gt;&lt;div&gt;atualizarRifa()&lt;/div&gt;&lt;div&gt;excluirRifa()&lt;/div&gt;&lt;div&gt;consutarRifa()&lt;/div&gt;&lt;div&gt;expirarRifa()&lt;br&gt;&lt;div&gt;&lt;br&gt;&lt;/div&gt;&lt;/div&gt;" style="text;strokeColor=none;fillColor=none;align=left;verticalAlign=top;spacingLeft=4;spacingRight=4;overflow=hidden;rotatable=0;points=[[0,0.5],[1,0.5]];portConstraint=eastwest;whiteSpace=wrap;html=1;" vertex="1" parent="ROxJ2L41lWqFTHPMJ1Fw-20">
          <mxGeometry y="112" width="160" height="98" as="geometry" />
        </mxCell>
        <mxCell id="ROxJ2L41lWqFTHPMJ1Fw-33" value="Bilhete" style="swimlane;fontStyle=1;align=center;verticalAlign=top;childLayout=stackLayout;horizontal=1;startSize=26;horizontalStack=0;resizeParent=1;resizeParentMax=0;resizeLast=0;collapsible=1;marginBottom=0;whiteSpace=wrap;html=1;" vertex="1" parent="WIyWlLk6GJQsqaUBKTNV-1">
          <mxGeometry x="610" y="650" width="160" height="190" as="geometry" />
        </mxCell>
        <mxCell id="ROxJ2L41lWqFTHPMJ1Fw-34" value="nome_bilhete:string&lt;div&gt;&lt;span style=&quot;background-color: initial;&quot;&gt;id_bilhete:int&lt;/span&gt;&lt;/div&gt;&lt;div&gt;&lt;span style=&quot;background-color: initial;&quot;&gt;id_rifa:int&lt;/span&gt;&lt;/div&gt;&lt;div&gt;&lt;span style=&quot;background-color: initial;&quot;&gt;&lt;br&gt;&lt;/span&gt;&lt;/div&gt;" style="text;strokeColor=none;fillColor=none;align=left;verticalAlign=top;spacingLeft=4;spacingRight=4;overflow=hidden;rotatable=0;points=[[0,0.5],[1,0.5]];portConstraint=eastwest;whiteSpace=wrap;html=1;" vertex="1" parent="ROxJ2L41lWqFTHPMJ1Fw-33">
          <mxGeometry y="26" width="160" height="64" as="geometry" />
        </mxCell>
        <mxCell id="ROxJ2L41lWqFTHPMJ1Fw-35" value="" style="line;strokeWidth=1;fillColor=none;align=left;verticalAlign=middle;spacingTop=-1;spacingLeft=3;spacingRight=3;rotatable=0;labelPosition=right;points=[];portConstraint=eastwest;strokeColor=inherit;" vertex="1" parent="ROxJ2L41lWqFTHPMJ1Fw-33">
          <mxGeometry y="90" width="160" height="8" as="geometry" />
        </mxCell>
        <mxCell id="ROxJ2L41lWqFTHPMJ1Fw-36" value="criarBilhete()&lt;div&gt;gerenciamentoBilhete()&lt;/div&gt;&lt;div&gt;consultarBilhete()&lt;/div&gt;&lt;div&gt;atualizarRifa()&lt;/div&gt;&lt;div&gt;excluirBilhete()&lt;/div&gt;&lt;div&gt;&lt;br&gt;&lt;/div&gt;" style="text;strokeColor=none;fillColor=none;align=left;verticalAlign=top;spacingLeft=4;spacingRight=4;overflow=hidden;rotatable=0;points=[[0,0.5],[1,0.5]];portConstraint=eastwest;whiteSpace=wrap;html=1;" vertex="1" parent="ROxJ2L41lWqFTHPMJ1Fw-33">
          <mxGeometry y="98" width="160" height="92" as="geometry" />
        </mxCell>
        <mxCell id="ROxJ2L41lWqFTHPMJ1Fw-38" value="1" style="text;html=1;align=center;verticalAlign=middle;resizable=0;points=[];autosize=1;strokeColor=none;fillColor=none;" vertex="1" parent="WIyWlLk6GJQsqaUBKTNV-1">
          <mxGeometry x="655" y="560" width="30" height="30" as="geometry" />
        </mxCell>
        <mxCell id="ROxJ2L41lWqFTHPMJ1Fw-39" value="1...*" style="text;html=1;align=center;verticalAlign=middle;resizable=0;points=[];autosize=1;strokeColor=none;fillColor=none;" vertex="1" parent="WIyWlLk6GJQsqaUBKTNV-1">
          <mxGeometry x="655" y="620" width="40" height="30" as="geometry" />
        </mxCell>
        <mxCell id="ROxJ2L41lWqFTHPMJ1Fw-41" value="1...*" style="text;html=1;align=center;verticalAlign=middle;resizable=0;points=[];autosize=1;strokeColor=none;fillColor=none;" vertex="1" parent="WIyWlLk6GJQsqaUBKTNV-1">
          <mxGeometry x="570" y="404" width="40" height="30" as="geometry" />
        </mxCell>
        <mxCell id="ROxJ2L41lWqFTHPMJ1Fw-44" value="" style="endArrow=diamondThin;endFill=1;endSize=24;html=1;rounded=0;exitX=1.019;exitY=1;exitDx=0;exitDy=0;exitPerimeter=0;entryX=1;entryY=1;entryDx=0;entryDy=0;entryPerimeter=0;" edge="1" parent="WIyWlLk6GJQsqaUBKTNV-1" source="ROxJ2L41lWqFTHPMJ1Fw-17" target="ROxJ2L41lWqFTHPMJ1Fw-41">
          <mxGeometry width="160" relative="1" as="geometry">
            <mxPoint x="460" y="434.5" as="sourcePoint" />
            <mxPoint x="600" y="434" as="targetPoint" />
          </mxGeometry>
        </mxCell>
        <mxCell id="ROxJ2L41lWqFTHPMJ1Fw-45" value="" style="endArrow=diamondThin;endFill=1;endSize=24;html=1;rounded=0;entryX=0.5;entryY=1.02;entryDx=0;entryDy=0;entryPerimeter=0;" edge="1" parent="WIyWlLk6GJQsqaUBKTNV-1" target="ROxJ2L41lWqFTHPMJ1Fw-23">
          <mxGeometry width="160" relative="1" as="geometry">
            <mxPoint x="690" y="650" as="sourcePoint" />
            <mxPoint x="744.92" y="590" as="targetPoint" />
          </mxGeometry>
        </mxCell>
        <mxCell id="ROxJ2L41lWqFTHPMJ1Fw-46" value="1" style="text;html=1;align=center;verticalAlign=middle;resizable=0;points=[];autosize=1;strokeColor=none;fillColor=none;" vertex="1" parent="WIyWlLk6GJQsqaUBKTNV-1">
          <mxGeometry x="465" y="408" width="30" height="30" as="geometry" />
        </mxCell>
      </root>
    </mxGraphModel>
  </diagram>
</mxfile>
